<mxfile host="app.diagrams.net" agent="Mozilla/5.0 (Macintosh; Intel Mac OS X 10_15_7) AppleWebKit/537.36 (KHTML, like Gecko) Chrome/130.0.0.0 Safari/537.36" version="24.8.6">
  <diagram id="07fea595-8f29-1299-0266-81d95cde20df" name="Page-1">
    <mxGraphModel dx="1374" dy="795" grid="1" gridSize="10" guides="1" tooltips="1" connect="1" arrows="1" fold="1" page="1" pageScale="1" pageWidth="1169" pageHeight="827" background="#ffffff" math="0" shadow="0">
      <root>
        <mxCell id="0" />
        <mxCell id="1" parent="0" />
        <mxCell id="F3eI3s95bXMK1xL2EWeE-253" style="edgeStyle=orthogonalEdgeStyle;rounded=0;orthogonalLoop=1;jettySize=auto;html=1;exitX=1;exitY=0.5;exitDx=0;exitDy=0;strokeColor=none;shape=link;" edge="1" parent="1" source="F3eI3s95bXMK1xL2EWeE-217" target="F3eI3s95bXMK1xL2EWeE-218">
          <mxGeometry relative="1" as="geometry" />
        </mxCell>
        <mxCell id="F3eI3s95bXMK1xL2EWeE-254" style="edgeStyle=orthogonalEdgeStyle;rounded=0;orthogonalLoop=1;jettySize=auto;html=1;entryX=0;entryY=0.5;entryDx=0;entryDy=0;shape=link;exitX=1;exitY=0.5;exitDx=0;exitDy=0;" edge="1" parent="1" source="F3eI3s95bXMK1xL2EWeE-217" target="F3eI3s95bXMK1xL2EWeE-219">
          <mxGeometry relative="1" as="geometry">
            <mxPoint x="600" y="30" as="sourcePoint" />
          </mxGeometry>
        </mxCell>
        <mxCell id="F3eI3s95bXMK1xL2EWeE-255" style="edgeStyle=orthogonalEdgeStyle;rounded=0;orthogonalLoop=1;jettySize=auto;html=1;entryX=0;entryY=0.5;entryDx=0;entryDy=0;shape=link;exitX=1;exitY=0.5;exitDx=0;exitDy=0;" edge="1" parent="1" source="F3eI3s95bXMK1xL2EWeE-217" target="F3eI3s95bXMK1xL2EWeE-220">
          <mxGeometry relative="1" as="geometry">
            <mxPoint x="620" y="60" as="sourcePoint" />
          </mxGeometry>
        </mxCell>
        <mxCell id="F3eI3s95bXMK1xL2EWeE-256" style="edgeStyle=orthogonalEdgeStyle;rounded=0;orthogonalLoop=1;jettySize=auto;html=1;entryX=0;entryY=0.5;entryDx=0;entryDy=0;shape=link;exitX=1;exitY=0.5;exitDx=0;exitDy=0;" edge="1" parent="1" source="F3eI3s95bXMK1xL2EWeE-217" target="F3eI3s95bXMK1xL2EWeE-221">
          <mxGeometry relative="1" as="geometry">
            <mxPoint x="620" y="140" as="sourcePoint" />
          </mxGeometry>
        </mxCell>
        <mxCell id="F3eI3s95bXMK1xL2EWeE-217" value="客户" style="whiteSpace=wrap;shadow=0;fontColor=#FFFFFF;fontFamily=Helvetica;fontStyle=0;html=1;fontSize=12;plain-purple;strokeColor=none;fillColor=#2f5b7c;gradientColor=none;spacing=6;verticalAlign=middle;" vertex="1" parent="1">
          <mxGeometry x="480" y="70" width="120" height="60" as="geometry" />
        </mxCell>
        <mxCell id="F3eI3s95bXMK1xL2EWeE-223" value="" style="edgeStyle=orthogonalEdgeStyle;rounded=0;orthogonalLoop=1;jettySize=auto;html=1;" edge="1" parent="1" source="F3eI3s95bXMK1xL2EWeE-218" target="F3eI3s95bXMK1xL2EWeE-222">
          <mxGeometry relative="1" as="geometry" />
        </mxCell>
        <mxCell id="F3eI3s95bXMK1xL2EWeE-226" style="edgeStyle=orthogonalEdgeStyle;rounded=0;orthogonalLoop=1;jettySize=auto;html=1;exitX=1;exitY=0.5;exitDx=0;exitDy=0;entryX=0;entryY=0.5;entryDx=0;entryDy=0;" edge="1" parent="1" source="F3eI3s95bXMK1xL2EWeE-218" target="F3eI3s95bXMK1xL2EWeE-224">
          <mxGeometry relative="1" as="geometry" />
        </mxCell>
        <mxCell id="F3eI3s95bXMK1xL2EWeE-227" style="edgeStyle=orthogonalEdgeStyle;rounded=0;orthogonalLoop=1;jettySize=auto;html=1;exitX=1;exitY=0.5;exitDx=0;exitDy=0;" edge="1" parent="1" source="F3eI3s95bXMK1xL2EWeE-218" target="F3eI3s95bXMK1xL2EWeE-225">
          <mxGeometry relative="1" as="geometry" />
        </mxCell>
        <mxCell id="F3eI3s95bXMK1xL2EWeE-218" value="产品政策" style="whiteSpace=wrap;shadow=0;fontColor=#FFFFFF;fontFamily=Helvetica;fontStyle=0;html=1;fontSize=12;plain-purple;strokeColor=none;fillColor=#2f5b7c;gradientColor=none;spacing=6;verticalAlign=middle;" vertex="1" parent="1">
          <mxGeometry x="720" y="70" width="120" height="60" as="geometry" />
        </mxCell>
        <mxCell id="F3eI3s95bXMK1xL2EWeE-245" style="edgeStyle=orthogonalEdgeStyle;rounded=0;orthogonalLoop=1;jettySize=auto;html=1;exitX=1;exitY=0.5;exitDx=0;exitDy=0;entryX=0;entryY=0.5;entryDx=0;entryDy=0;" edge="1" parent="1" source="F3eI3s95bXMK1xL2EWeE-219" target="F3eI3s95bXMK1xL2EWeE-229">
          <mxGeometry relative="1" as="geometry" />
        </mxCell>
        <mxCell id="F3eI3s95bXMK1xL2EWeE-247" style="edgeStyle=orthogonalEdgeStyle;rounded=0;orthogonalLoop=1;jettySize=auto;html=1;exitX=1;exitY=0.5;exitDx=0;exitDy=0;entryX=0;entryY=0.5;entryDx=0;entryDy=0;" edge="1" parent="1" source="F3eI3s95bXMK1xL2EWeE-219" target="F3eI3s95bXMK1xL2EWeE-228">
          <mxGeometry relative="1" as="geometry" />
        </mxCell>
        <mxCell id="F3eI3s95bXMK1xL2EWeE-248" style="edgeStyle=orthogonalEdgeStyle;rounded=0;orthogonalLoop=1;jettySize=auto;html=1;exitX=1;exitY=0.5;exitDx=0;exitDy=0;" edge="1" parent="1" source="F3eI3s95bXMK1xL2EWeE-219" target="F3eI3s95bXMK1xL2EWeE-230">
          <mxGeometry relative="1" as="geometry" />
        </mxCell>
        <mxCell id="F3eI3s95bXMK1xL2EWeE-219" value="系列政策" style="whiteSpace=wrap;shadow=0;fontColor=#FFFFFF;fontFamily=Helvetica;fontStyle=0;html=1;fontSize=12;plain-purple;strokeColor=none;fillColor=#2f5b7c;gradientColor=none;spacing=6;verticalAlign=middle;" vertex="1" parent="1">
          <mxGeometry x="720" y="210" width="120" height="60" as="geometry" />
        </mxCell>
        <mxCell id="F3eI3s95bXMK1xL2EWeE-243" style="edgeStyle=orthogonalEdgeStyle;rounded=0;orthogonalLoop=1;jettySize=auto;html=1;exitX=1;exitY=0.5;exitDx=0;exitDy=0;entryX=0;entryY=0.5;entryDx=0;entryDy=0;" edge="1" parent="1" source="F3eI3s95bXMK1xL2EWeE-220" target="F3eI3s95bXMK1xL2EWeE-238">
          <mxGeometry relative="1" as="geometry" />
        </mxCell>
        <mxCell id="F3eI3s95bXMK1xL2EWeE-249" style="edgeStyle=orthogonalEdgeStyle;rounded=0;orthogonalLoop=1;jettySize=auto;html=1;exitX=1;exitY=0.5;exitDx=0;exitDy=0;entryX=0;entryY=0.5;entryDx=0;entryDy=0;" edge="1" parent="1" source="F3eI3s95bXMK1xL2EWeE-220" target="F3eI3s95bXMK1xL2EWeE-237">
          <mxGeometry relative="1" as="geometry" />
        </mxCell>
        <mxCell id="F3eI3s95bXMK1xL2EWeE-250" style="edgeStyle=orthogonalEdgeStyle;rounded=0;orthogonalLoop=1;jettySize=auto;html=1;exitX=1;exitY=0.5;exitDx=0;exitDy=0;entryX=0;entryY=0.5;entryDx=0;entryDy=0;" edge="1" parent="1" source="F3eI3s95bXMK1xL2EWeE-220" target="F3eI3s95bXMK1xL2EWeE-239">
          <mxGeometry relative="1" as="geometry" />
        </mxCell>
        <mxCell id="F3eI3s95bXMK1xL2EWeE-220" value="无违规政策" style="whiteSpace=wrap;shadow=0;fontColor=#FFFFFF;fontFamily=Helvetica;fontStyle=0;html=1;fontSize=12;plain-purple;strokeColor=none;fillColor=#2f5b7c;gradientColor=none;spacing=6;verticalAlign=middle;" vertex="1" parent="1">
          <mxGeometry x="720" y="354" width="120" height="60" as="geometry" />
        </mxCell>
        <mxCell id="F3eI3s95bXMK1xL2EWeE-246" style="edgeStyle=orthogonalEdgeStyle;rounded=0;orthogonalLoop=1;jettySize=auto;html=1;exitX=1;exitY=0.5;exitDx=0;exitDy=0;entryX=0;entryY=0.5;entryDx=0;entryDy=0;" edge="1" parent="1" source="F3eI3s95bXMK1xL2EWeE-221" target="F3eI3s95bXMK1xL2EWeE-241">
          <mxGeometry relative="1" as="geometry" />
        </mxCell>
        <mxCell id="F3eI3s95bXMK1xL2EWeE-251" style="edgeStyle=orthogonalEdgeStyle;rounded=0;orthogonalLoop=1;jettySize=auto;html=1;exitX=1;exitY=0.5;exitDx=0;exitDy=0;entryX=0;entryY=0.5;entryDx=0;entryDy=0;" edge="1" parent="1" source="F3eI3s95bXMK1xL2EWeE-221" target="F3eI3s95bXMK1xL2EWeE-240">
          <mxGeometry relative="1" as="geometry" />
        </mxCell>
        <mxCell id="F3eI3s95bXMK1xL2EWeE-252" style="edgeStyle=orthogonalEdgeStyle;rounded=0;orthogonalLoop=1;jettySize=auto;html=1;exitX=1;exitY=0.5;exitDx=0;exitDy=0;entryX=0;entryY=0.5;entryDx=0;entryDy=0;" edge="1" parent="1" source="F3eI3s95bXMK1xL2EWeE-221" target="F3eI3s95bXMK1xL2EWeE-242">
          <mxGeometry relative="1" as="geometry" />
        </mxCell>
        <mxCell id="F3eI3s95bXMK1xL2EWeE-221" value="退货政策" style="whiteSpace=wrap;shadow=0;fontColor=#FFFFFF;fontFamily=Helvetica;fontStyle=0;html=1;fontSize=12;plain-purple;strokeColor=none;fillColor=#2f5b7c;gradientColor=none;spacing=6;verticalAlign=middle;" vertex="1" parent="1">
          <mxGeometry x="720" y="494" width="120" height="60" as="geometry" />
        </mxCell>
        <mxCell id="F3eI3s95bXMK1xL2EWeE-222" value="满 100 册返 1%" style="whiteSpace=wrap;shadow=0;fontColor=#FFFFFF;fontFamily=Helvetica;fontStyle=0;html=1;fontSize=12;plain-purple;strokeColor=none;fillColor=#2f5b7c;gradientColor=none;spacing=6;verticalAlign=middle;" vertex="1" parent="1">
          <mxGeometry x="920" y="40" width="120" height="30" as="geometry" />
        </mxCell>
        <mxCell id="F3eI3s95bXMK1xL2EWeE-224" value="满 200 册返 2%" style="whiteSpace=wrap;shadow=0;fontColor=#FFFFFF;fontFamily=Helvetica;fontStyle=0;html=1;fontSize=12;plain-purple;strokeColor=none;fillColor=#2f5b7c;gradientColor=none;spacing=6;verticalAlign=middle;" vertex="1" parent="1">
          <mxGeometry x="920" y="85" width="120" height="30" as="geometry" />
        </mxCell>
        <mxCell id="F3eI3s95bXMK1xL2EWeE-225" value="满 300 册返......" style="whiteSpace=wrap;shadow=0;fontColor=#FFFFFF;fontFamily=Helvetica;fontStyle=0;html=1;fontSize=12;plain-purple;strokeColor=none;fillColor=#2f5b7c;gradientColor=none;spacing=6;verticalAlign=middle;" vertex="1" parent="1">
          <mxGeometry x="920" y="130" width="120" height="30" as="geometry" />
        </mxCell>
        <mxCell id="F3eI3s95bXMK1xL2EWeE-228" value="满 100 册返 1%" style="whiteSpace=wrap;shadow=0;fontColor=#FFFFFF;fontFamily=Helvetica;fontStyle=0;html=1;fontSize=12;plain-purple;strokeColor=none;fillColor=#2f5b7c;gradientColor=none;spacing=6;verticalAlign=middle;" vertex="1" parent="1">
          <mxGeometry x="920" y="180" width="120" height="30" as="geometry" />
        </mxCell>
        <mxCell id="F3eI3s95bXMK1xL2EWeE-229" value="满 200 册返 2%" style="whiteSpace=wrap;shadow=0;fontColor=#FFFFFF;fontFamily=Helvetica;fontStyle=0;html=1;fontSize=12;plain-purple;strokeColor=none;fillColor=#2f5b7c;gradientColor=none;spacing=6;verticalAlign=middle;" vertex="1" parent="1">
          <mxGeometry x="920" y="225" width="120" height="30" as="geometry" />
        </mxCell>
        <mxCell id="F3eI3s95bXMK1xL2EWeE-230" value="满 300 册返......" style="whiteSpace=wrap;shadow=0;fontColor=#FFFFFF;fontFamily=Helvetica;fontStyle=0;html=1;fontSize=12;plain-purple;strokeColor=none;fillColor=#2f5b7c;gradientColor=none;spacing=6;verticalAlign=middle;" vertex="1" parent="1">
          <mxGeometry x="920" y="270" width="120" height="30" as="geometry" />
        </mxCell>
        <mxCell id="F3eI3s95bXMK1xL2EWeE-237" value="无同城串货 返 1%" style="whiteSpace=wrap;shadow=0;fontColor=#FFFFFF;fontFamily=Helvetica;fontStyle=0;html=1;fontSize=12;plain-purple;strokeColor=none;fillColor=#2f5b7c;gradientColor=none;spacing=6;verticalAlign=middle;" vertex="1" parent="1">
          <mxGeometry x="920" y="324" width="120" height="30" as="geometry" />
        </mxCell>
        <mxCell id="F3eI3s95bXMK1xL2EWeE-238" value="无跨省串货 返 2%" style="whiteSpace=wrap;shadow=0;fontColor=#FFFFFF;fontFamily=Helvetica;fontStyle=0;html=1;fontSize=12;plain-purple;strokeColor=none;fillColor=#2f5b7c;gradientColor=none;spacing=6;verticalAlign=middle;" vertex="1" parent="1">
          <mxGeometry x="920" y="369" width="120" height="30" as="geometry" />
        </mxCell>
        <mxCell id="F3eI3s95bXMK1xL2EWeE-239" value="无刷单 返......" style="whiteSpace=wrap;shadow=0;fontColor=#FFFFFF;fontFamily=Helvetica;fontStyle=0;html=1;fontSize=12;plain-purple;strokeColor=none;fillColor=#2f5b7c;gradientColor=none;spacing=6;verticalAlign=middle;" vertex="1" parent="1">
          <mxGeometry x="920" y="414" width="120" height="30" as="geometry" />
        </mxCell>
        <mxCell id="F3eI3s95bXMK1xL2EWeE-240" value="满 5% 扣 1%" style="whiteSpace=wrap;shadow=0;fontColor=#FFFFFF;fontFamily=Helvetica;fontStyle=0;html=1;fontSize=12;plain-purple;strokeColor=none;fillColor=#2f5b7c;gradientColor=none;spacing=6;verticalAlign=middle;" vertex="1" parent="1">
          <mxGeometry x="920" y="464" width="120" height="30" as="geometry" />
        </mxCell>
        <mxCell id="F3eI3s95bXMK1xL2EWeE-241" value="满 10% 扣 2%" style="whiteSpace=wrap;shadow=0;fontColor=#FFFFFF;fontFamily=Helvetica;fontStyle=0;html=1;fontSize=12;plain-purple;strokeColor=none;fillColor=#2f5b7c;gradientColor=none;spacing=6;verticalAlign=middle;" vertex="1" parent="1">
          <mxGeometry x="920" y="509" width="120" height="30" as="geometry" />
        </mxCell>
        <mxCell id="F3eI3s95bXMK1xL2EWeE-242" value="满 20 扣......" style="whiteSpace=wrap;shadow=0;fontColor=#FFFFFF;fontFamily=Helvetica;fontStyle=0;html=1;fontSize=12;plain-purple;strokeColor=none;fillColor=#2f5b7c;gradientColor=none;spacing=6;verticalAlign=middle;" vertex="1" parent="1">
          <mxGeometry x="920" y="554" width="120" height="30" as="geometry" />
        </mxCell>
        <mxCell id="F3eI3s95bXMK1xL2EWeE-260" style="edgeStyle=orthogonalEdgeStyle;rounded=0;orthogonalLoop=1;jettySize=auto;html=1;exitX=1;exitY=0.5;exitDx=0;exitDy=0;entryX=0;entryY=0.5;entryDx=0;entryDy=0;shape=link;" edge="1" parent="1" source="F3eI3s95bXMK1xL2EWeE-257" target="F3eI3s95bXMK1xL2EWeE-218">
          <mxGeometry relative="1" as="geometry" />
        </mxCell>
        <mxCell id="F3eI3s95bXMK1xL2EWeE-257" value="客户" style="whiteSpace=wrap;shadow=0;fontColor=#FFFFFF;fontFamily=Helvetica;fontStyle=0;html=1;fontSize=12;plain-purple;strokeColor=none;fillColor=#2f5b7c;gradientColor=none;spacing=6;verticalAlign=middle;" vertex="1" parent="1">
          <mxGeometry x="480" y="210" width="120" height="60" as="geometry" />
        </mxCell>
        <mxCell id="F3eI3s95bXMK1xL2EWeE-261" style="edgeStyle=orthogonalEdgeStyle;rounded=0;orthogonalLoop=1;jettySize=auto;html=1;exitX=1;exitY=0.5;exitDx=0;exitDy=0;shape=link;entryX=0;entryY=0.5;entryDx=0;entryDy=0;" edge="1" parent="1" source="F3eI3s95bXMK1xL2EWeE-258" target="F3eI3s95bXMK1xL2EWeE-220">
          <mxGeometry relative="1" as="geometry">
            <mxPoint x="690" y="340" as="targetPoint" />
          </mxGeometry>
        </mxCell>
        <mxCell id="F3eI3s95bXMK1xL2EWeE-258" value="客户" style="whiteSpace=wrap;shadow=0;fontColor=#FFFFFF;fontFamily=Helvetica;fontStyle=0;html=1;fontSize=12;plain-purple;strokeColor=none;fillColor=#2f5b7c;gradientColor=none;spacing=6;verticalAlign=middle;" vertex="1" parent="1">
          <mxGeometry x="480" y="354" width="120" height="60" as="geometry" />
        </mxCell>
        <mxCell id="F3eI3s95bXMK1xL2EWeE-262" style="edgeStyle=orthogonalEdgeStyle;rounded=0;orthogonalLoop=1;jettySize=auto;html=1;exitX=1;exitY=0.5;exitDx=0;exitDy=0;shape=link;" edge="1" parent="1" source="F3eI3s95bXMK1xL2EWeE-259" target="F3eI3s95bXMK1xL2EWeE-221">
          <mxGeometry relative="1" as="geometry" />
        </mxCell>
        <mxCell id="F3eI3s95bXMK1xL2EWeE-259" value="客户" style="whiteSpace=wrap;shadow=0;fontColor=#FFFFFF;fontFamily=Helvetica;fontStyle=0;html=1;fontSize=12;plain-purple;strokeColor=none;fillColor=#2f5b7c;gradientColor=none;spacing=6;verticalAlign=middle;" vertex="1" parent="1">
          <mxGeometry x="480" y="494" width="120" height="60" as="geometry" />
        </mxCell>
        <mxCell id="F3eI3s95bXMK1xL2EWeE-263" value="&lt;h1 style=&quot;margin-top: 0px;&quot;&gt;政策管理&lt;/h1&gt;&lt;p&gt;&amp;nbsp;客户与产品、系列、无违规、退货政策为多对多关系。&lt;/p&gt;&lt;p&gt;&lt;span style=&quot;background-color: initial;&quot;&gt;&amp;nbsp;客户可以在返点配置中配置不同的政策。&lt;/span&gt;&lt;/p&gt;&lt;p&gt;&lt;span style=&quot;background-color: initial;&quot;&gt;&amp;nbsp;根据政策在明细中查看实际优惠价格。&lt;/span&gt;&lt;/p&gt;&lt;p&gt;&lt;span style=&quot;background-color: initial;&quot;&gt;&amp;nbsp;产品、系列、无违规和退货政策中也可以查看关联客户和反选&lt;/span&gt;&lt;span style=&quot;background-color: initial;&quot;&gt;客户。&lt;/span&gt;&lt;/p&gt;&lt;p&gt;&lt;b style=&quot;background-color: rgb(255, 255, 204);&quot;&gt;&amp;nbsp;明细优惠总值 = 产品总返点 + 系列总返点 + 无违规总返点 - 退货扣除点。&lt;/b&gt;&lt;/p&gt;&lt;p&gt;&lt;br&gt;&lt;/p&gt;" style="text;html=1;whiteSpace=wrap;overflow=hidden;rounded=0;" vertex="1" parent="1">
          <mxGeometry x="60" y="40" width="420" height="210" as="geometry" />
        </mxCell>
        <mxCell id="F3eI3s95bXMK1xL2EWeE-265" value="&lt;h1 style=&quot;margin-top: 0px;&quot;&gt;存在问题&lt;/h1&gt;&lt;p&gt;&amp;nbsp;1. 客户是否可以一个产品关联多个政策。&lt;/p&gt;&lt;p&gt;&amp;nbsp;2. 客户是否可以一个系列关联多个政策。&lt;/p&gt;&lt;p&gt;&amp;nbsp;3. 系列和产品政策重叠时是分别计算，还是要排除重复产品并以产品政策&lt;/p&gt;&lt;p&gt;&amp;nbsp; &amp;nbsp; &amp;nbsp;为主计算。&lt;/p&gt;&lt;p&gt;&amp;nbsp;4. &lt;b&gt;政策计算时目前是按照政策最大值计算。&lt;/b&gt;&lt;/p&gt;&lt;p&gt;&lt;span style=&quot;white-space: pre;&quot;&gt;&#x9;&lt;/span&gt;例如：政策为满 100 返 2%，满200 返 3%。&lt;/p&gt;&lt;p&gt;&lt;span style=&quot;white-space: pre;&quot;&gt;&#x9;&lt;/span&gt;则：&amp;nbsp; &amp;nbsp; 当数量为 300 时 全部按照&lt;span style=&quot;background-color: initial;&quot;&gt;满200 返 3%计算。&lt;/span&gt;&lt;br&gt;&lt;/p&gt;&lt;p&gt;&lt;br&gt;&lt;/p&gt;" style="text;html=1;whiteSpace=wrap;overflow=hidden;rounded=0;" vertex="1" parent="1">
          <mxGeometry x="60" y="280" width="420" height="260" as="geometry" />
        </mxCell>
      </root>
    </mxGraphModel>
  </diagram>
</mxfile>
